<svg width="80" height="80" viewBox="0 0 80 80" fill="none" xmlns="http://www.w3.org/2000/svg">
<path d="M60.3331 0H19.6669C15.5937 0 12.28 3.31375 12.28 7.38688V72.613C12.28 76.6862 15.5937 80 19.6669 80H60.3331C64.4062 80 67.7201 76.6862 67.7201 72.6131V7.38688C67.72 3.31375 64.4062 0 60.3331 0V0Z" fill="#FF9E22"/>
<path d="M60.3331 0H40V80H60.3331C64.4062 80 67.7201 76.6862 67.7201 72.6131V7.38688C67.72 3.31375 64.4062 0 60.3331 0V0Z" fill="#FC8A26"/>
<path d="M46.118 9.23999H33.8817C28.5189 9.23999 24.1559 13.6031 24.1559 18.9659V25.7319C24.1559 31.0947 28.5189 35.4576 33.8817 35.4576H46.118C51.4808 35.4576 55.8439 31.0947 55.8439 25.7319V18.9659C55.8439 13.6031 51.4809 9.23999 46.118 9.23999Z" fill="#EBF5F7"/>
<path d="M46.118 44.5422H33.8817C28.5189 44.5422 24.1559 48.9052 24.1559 54.268V61.034C24.1559 66.3968 28.5189 70.7599 33.8817 70.7599H46.118C51.4808 70.7599 55.8439 66.3968 55.8439 61.034V54.268C55.8439 48.9052 51.4809 44.5422 46.118 44.5422Z" fill="#EBF5F7"/>
<path d="M55.8439 25.7319V18.9659C55.8439 13.6031 51.4809 9.23999 46.118 9.23999H40V35.4576H46.1181C51.4809 35.4576 55.8439 31.0947 55.8439 25.7319Z" fill="#DFEEF0"/>
<path d="M46.1181 70.7599C51.4809 70.7599 55.8441 66.3968 55.8441 61.034V54.268C55.8441 48.9052 51.4811 44.5422 46.1181 44.5422H40V70.7599H46.1181Z" fill="#DFEEF0"/>
<path d="M34.3067 24.7809C33.0123 24.7809 31.963 23.7315 31.963 22.4372V18.2903C31.963 16.9959 33.0123 15.9465 34.3067 15.9465C35.6011 15.9465 36.6505 16.9959 36.6505 18.2903V22.4372C36.6505 23.7315 35.6011 24.7809 34.3067 24.7809Z" fill="#07485E"/>
<path d="M45.6933 24.7809C44.3989 24.7809 43.3495 23.7315 43.3495 22.4372V18.2903C43.3495 16.9959 44.3989 15.9465 45.6933 15.9465C46.9877 15.9465 48.037 16.9959 48.037 18.2903V22.4372C48.037 23.7315 46.9877 24.7809 45.6933 24.7809Z" fill="#04303E"/>
<path d="M40 29.7403C38.7056 29.7403 37.6562 28.691 37.6562 27.3966V26.6355C37.6562 25.3411 38.7056 24.2917 40 24.2917C41.2944 24.2917 42.3437 25.3411 42.3437 26.6355V27.3966C42.3437 28.691 41.2944 29.7403 40 29.7403Z" fill="#07485E"/>
<path d="M34.3067 60.0832C33.0123 60.0832 31.963 59.0338 31.963 57.7394V53.5925C31.963 52.2982 33.0123 51.2488 34.3067 51.2488C35.6011 51.2488 36.6505 52.2982 36.6505 53.5925V57.7394C36.6505 59.0338 35.6011 60.0832 34.3067 60.0832Z" fill="#07485E"/>
<path d="M45.6933 60.0832C44.3989 60.0832 43.3495 59.0338 43.3495 57.7394V53.5925C43.3495 52.2982 44.3989 51.2488 45.6933 51.2488C46.9877 51.2488 48.037 52.2982 48.037 53.5925V57.7394C48.037 59.0338 46.9877 60.0832 45.6933 60.0832Z" fill="#04303E"/>
<path d="M40 65.0424C38.7056 65.0424 37.6562 63.9931 37.6562 62.6987V61.9377C37.6562 60.6434 38.7056 59.594 40 59.594C41.2944 59.594 42.3437 60.6434 42.3437 61.9377V62.6987C42.3437 63.9932 41.2944 65.0424 40 65.0424Z" fill="#07485E"/>
<path d="M40 42.3468C41.2944 42.3468 42.3437 41.2961 42.3437 40C42.3437 38.7038 41.2944 37.6531 40 37.6531C38.7056 37.6531 37.6562 38.7038 37.6562 40C37.6562 41.2961 38.7056 42.3468 40 42.3468Z" fill="#07485E"/>
<path d="M42.3438 27.3966V26.6355C42.3438 25.3411 41.2944 24.2917 40 24.2917V29.7403C41.2944 29.7403 42.3438 28.691 42.3438 27.3966Z" fill="#04303E"/>
<path d="M42.3437 62.6987V61.9377C42.3437 60.6434 41.2944 59.594 40 59.594V65.0424C41.2944 65.0424 42.3437 63.9932 42.3437 62.6987Z" fill="#04303E"/>
<path d="M42.3437 40C42.3437 38.7039 41.2944 37.6531 40 37.6531V42.3468C41.2944 42.3468 42.3437 41.2961 42.3437 40Z" fill="#04303E"/>
</svg>
