<svg width="80" height="80" viewBox="0 0 80 80" fill="none" xmlns="http://www.w3.org/2000/svg">
<g clip-path="url(#clip0)">
<path d="M80 21.8756V23.1256C80 29.5728 74.631 34.8435 68.1258 34.8435H11.8798C7.97132 34.8435 4.6928 38.0782 4.6928 41.8742V50.6236C4.6928 54.4343 7.98475 57.6544 11.8798 57.6544H17.5044C18.7981 57.6544 19.848 58.7043 19.848 59.998C19.848 61.2916 18.7981 62.3415 17.5044 62.3415H11.8798C5.38119 62.3415 0.00562784 57.0782 0.00562784 50.6236C0.00562784 41.2369 -0.0446811 41.239 0.15718 39.9994C1.06212 34.5019 5.96037 30.1563 11.8798 30.1563H68.1258C72.0209 30.1563 75.3128 26.9362 75.3128 23.1256V21.8756C75.3128 18.065 72.0209 14.8449 68.1258 14.8449H27.5037C26.21 14.8449 25.1601 13.795 25.1601 12.5013C25.1601 11.2076 26.21 10.1577 27.5037 10.1577H68.1258C74.6244 10.1577 80 15.4211 80 21.8756Z" fill="#4D5788"/>
<path d="M19.848 59.9981C19.848 61.2918 18.7981 62.3417 17.5044 62.3417H11.8798C5.38119 62.3417 0.00562784 57.0783 0.00562784 50.6238C0.00562784 41.2371 -0.0446811 41.2391 0.15718 39.9995H4.96465C4.7881 40.5995 4.6928 41.2276 4.6928 41.8744V50.6238C4.6928 54.4344 7.98475 57.6545 11.8798 57.6545H17.5044C18.7981 57.6545 19.848 58.7044 19.848 59.9981Z" fill="#313A6B"/>
<path d="M72.9692 40.1558H19.848C17.2635 40.1558 15.1608 42.2584 15.1608 44.8429V72.966C15.1608 76.8427 18.3148 79.9967 22.1916 79.9967H72.9692C76.846 79.9967 80 76.8427 80 72.966V47.1865C80 43.3098 76.846 40.1558 72.9692 40.1558Z" fill="#DFE5F2"/>
<path d="M60.0014 69.8411C65.4376 69.8411 69.8445 65.4343 69.8445 59.9981C69.8445 54.5619 65.4376 50.155 60.0014 50.155C54.5652 50.155 50.1584 54.5619 50.1584 59.9981C50.1584 65.4343 54.5652 69.8411 60.0014 69.8411Z" fill="#E58F22"/>
<path d="M35.0032 69.8411C40.4393 69.8411 44.8462 65.4343 44.8462 59.9981C44.8462 54.5619 40.4393 50.155 35.0032 50.155C29.567 50.155 25.1601 54.5619 25.1601 59.9981C25.1601 65.4343 29.567 69.8411 35.0032 69.8411Z" fill="#DC455B"/>
<path d="M25.1601 2.65845H10.0049C8.71065 2.65845 7.66135 3.70775 7.66135 5.00203V20.001C7.66135 21.2953 8.71065 22.3446 10.0049 22.3446H25.1601C27.7446 22.3446 29.8473 20.2419 29.8473 17.6574V7.34562C29.8473 4.76111 27.7446 2.65845 25.1601 2.65845Z" fill="#F1F6FF"/>
<path d="M12.3484 2.36837C12.3602 1.07409 11.3206 0.0152533 10.0263 0.00337911C8.73455 -0.0136509 7.67322 1.03112 7.66134 2.3254L7.63541 5.15958H2.34922C1.05493 5.15958 0.00563049 6.20888 0.00563049 7.50316C0.00563049 8.79745 1.05493 9.84675 2.34922 9.84675H7.5926L7.54385 15.1589H2.34922C1.05493 15.1589 0.00563049 16.2082 0.00563049 17.5025C0.00563049 18.7967 1.05493 19.846 2.34922 19.846H7.50089L7.47682 22.4802C7.46495 23.7823 8.51691 24.8452 9.82072 24.8452C11.105 24.8452 12.152 23.8101 12.1638 22.523C12.192 19.4419 12.2976 7.91642 12.3484 2.36837Z" fill="#4D5788"/>
</g>
<defs>
<clipPath id="clip0">
<rect width="80" height="80" fill="white"/>
</clipPath>
</defs>
</svg>
