<svg width="80" height="80" viewBox="0 0 80 80" fill="none" xmlns="http://www.w3.org/2000/svg">
<path d="M40.2155 61.272C36.5649 61.272 32.6666 60.21 28.8879 57.1014C28.3203 56.637 27.7594 56.1243 27.1991 55.5634L23.1982 51.5625H30.9845C31.9208 51.5625 32.7722 51.1279 33.3191 50.368C33.866 49.6082 34.0106 48.6627 33.7152 47.7747C33.443 46.9598 32.8589 46.3464 32.0673 46.0443C31.2134 45.7239 30.2454 45.8063 29.408 46.2799C24.4177 49.1388 19.0002 49.2554 13.7451 46.6278L10.4816 44.9963L20.7031 36.7584C20.9644 35.8636 20.6848 34.884 19.9615 34.3073C16.9769 31.9226 12.2162 29.6863 6.46668 32.5659L1.40625 35.0946L3.19397 29.7272C6.17859 20.7709 15.9424 15.7654 24.9579 18.562L27.8375 19.4574C29.0027 19.8212 30.2728 19.3634 30.946 18.3606L31.7377 17.1777C35.022 12.2906 40.4944 9.375 46.3794 9.375C51.2708 9.375 55.8185 11.3318 59.1827 14.884C62.5452 18.4363 64.2505 23.0872 63.9826 27.9877L63.811 28.75L51.6229 58.4314L50.7324 58.8068C47.8186 60.0336 44.1589 61.272 40.2155 61.272Z" fill="#FFD396"/>
<path d="M70.7672 21.7499L56.9861 59.5783L48.1738 58.4998L42.6892 57.7972L48.1738 42.7502L57.5488 16.969L70.7672 21.7499Z" fill="#E1EBF0"/>
<path d="M70.7672 21.7499L56.9861 59.5783L48.1738 58.4998V42.7502L57.5488 16.969L70.7672 21.7499Z" fill="#B4D2D7"/>
<path d="M66.9238 23.4375C60.4626 23.4375 55.2051 18.1799 55.2051 11.7188C55.2051 5.25757 60.4626 0 66.9238 0C73.385 0 78.6426 5.25757 78.6426 11.7188C78.6426 18.1799 73.385 23.4375 66.9238 23.4375Z" fill="#E63950"/>
<path d="M62.8455 61.875C60.6891 58.3594 56.9861 56.25 52.8613 56.25H43.4863C37.7679 56.25 32.9865 60.3748 31.955 65.8124C26.5173 66.8439 22.3926 71.9379 22.3926 77.6562V80H73.9551V77.6562C73.9551 70.672 69.4086 64.1248 62.8455 61.875Z" fill="#676E74"/>
<path d="M73.9551 77.6562V80H48.1738V56.25H52.8613C56.9861 56.25 60.6891 58.3594 62.8455 61.875C69.4086 64.1248 73.9551 70.672 73.9551 77.6562Z" fill="#474F54"/>
</svg>
