<svg width="160" height="160" viewBox="0 0 160 160" fill="none" xmlns="http://www.w3.org/2000/svg">
<path d="M80 160C124.183 160 160 124.183 160 80C160 35.8172 124.183 0 80 0C35.8172 0 0 35.8172 0 80C0 124.183 35.8172 160 80 160Z" fill="url(#paint0_radial)"/>
<path d="M108.986 69.1862C108.986 53.1777 96.25 40.2012 80 40.2012C64.0625 40.2012 51.015 53.1777 51.015 69.1862C51.015 69.7062 51.0291 70.2237 51.0563 70.7371L51.0147 70.7474C51.0147 78.7743 57.7038 90.6637 60.3794 95.123C63.055 99.5818 65.2847 111.25 65.2847 111.25H73.3753H79.1081H80H94.9378C94.9378 111.25 96.945 99.5818 99.6203 95.1233C102.296 90.664 108.985 78.8109 108.985 70.784L108.943 70.7555C108.971 70.2415 108.986 69.7065 108.986 69.1862Z" fill="#F4C342"/>
<path d="M108.986 69.1862C108.986 53.1777 96.25 40.2012 80 40.2012V111.25H94.9378C94.9378 111.25 96.945 99.5818 99.6203 95.1233C102.296 90.664 108.985 78.8109 108.985 70.784L108.943 70.7555C108.971 70.2415 108.986 69.7065 108.986 69.1862Z" fill="#F89B36"/>
<path d="M89.0631 112.552C88.3856 112.552 87.8125 112.003 87.8125 111.326V96.3877C87.8125 95.5974 88.0469 94.6768 88.3813 93.9602L91.1853 88.1249H87.8328C87.6569 88.1249 87.3072 88.1096 87.2188 88.2618L84.845 92.2409C84.4616 92.9031 83.8563 93.2121 83.1953 93.1799C82.5313 93.1499 81.9653 92.7077 81.6431 92.0134L79.9919 88.4412L78.3578 91.9884C78.0372 92.6843 77.4725 93.0981 76.8072 93.129C76.1394 93.1584 75.5419 92.7971 75.1569 92.1349L72.7837 88.2631C72.6959 88.1106 72.3459 88.1249 72.1697 88.1249H68.8062L71.6 93.9637C71.9303 94.6809 72.1872 95.5993 72.1872 96.388V111.326C72.1872 112.003 71.7709 112.553 71.0934 112.553C70.4166 112.553 69.9997 112.003 69.9997 111.326V96.388C69.9997 95.9527 69.6866 95.1681 69.5041 94.7724L66.315 87.9909C66.0144 87.3384 66.0091 86.6859 66.3597 86.1377C66.7112 85.5909 67.2897 85.3124 68.0081 85.3124H72.1694C73.225 85.3124 74.3753 85.9387 74.9047 86.8512L76.6506 89.8396L78.3747 86.0831C78.9528 84.8265 79.1694 84.3518 79.9872 84.3518C80.8028 84.3518 81.0203 84.8184 81.6019 86.0715L83.3463 89.8302L85.0978 86.8506C85.6269 85.9387 86.7772 85.3121 87.8325 85.3121H91.9944C92.7144 85.3121 93.3278 85.5906 93.6775 86.1396C94.0281 86.6896 94.0537 87.3593 93.7494 88.0118L90.6269 94.789C90.4431 95.1815 90.3119 95.9543 90.3119 96.3874V111.326C90.3125 112.003 89.74 112.552 89.0631 112.552Z" fill="#EC7C2D"/>
<path d="M91.9951 85.3124H87.8332C86.7779 85.3124 85.6276 85.9387 85.0985 86.8506L83.3469 89.8478L81.6025 86.0781C81.0244 84.8325 80.9379 84.3531 80.0004 84.3484V88.4437L81.6441 91.9862C81.9663 92.6809 82.531 93.0959 83.196 93.1262C83.8563 93.1587 84.4622 92.7946 84.846 92.1331L87.2194 88.2615C87.3079 88.1096 87.6572 88.1246 87.8335 88.1246H91.186L88.3819 93.9603C88.0475 94.6768 87.8132 95.5971 87.8132 96.3878V111.25H90.3132V96.3878C90.3132 95.9543 90.4444 95.1731 90.6282 94.7806L93.7651 87.994C94.0688 87.3415 94.0357 86.6896 93.686 86.1396C93.3357 85.5909 92.7151 85.3124 91.9951 85.3124Z" fill="#D9521E"/>
<path d="M66.6219 110C64.1694 110 62.1875 111.549 62.1875 114.002V129.609C62.1875 139.42 70.3125 147.446 80 147.446V110H66.6219Z" fill="#BDC3C7"/>
<path d="M93.3775 110H80V147.446C90 147.446 97.8125 139.419 97.8125 129.609V114.002C97.8125 111.549 95.8303 110 93.3775 110Z" fill="#94A5A6"/>
<path d="M100.312 119.13V115.785C100.312 115.172 99.5647 114.688 98.9519 114.688H80V120.312H98.9519C99.5647 120.312 100.312 119.743 100.312 119.13Z" fill="#BDC3C7"/>
<path d="M61.0481 114.688C60.4356 114.688 60 115.172 60 115.785V119.13C60 119.743 60.4356 120.312 61.0481 120.312H80V114.688H61.0481Z" fill="#ECF0F1"/>
<path d="M98.9519 130.625C99.565 130.625 100.312 129.999 100.312 129.386V126.041C100.312 125.428 99.5647 125 98.9519 125H80V130.625H98.9519Z" fill="#BDC3C7"/>
<path d="M60 126.041V129.386C60 129.999 60.4356 130.625 61.0481 130.625H80V125H61.0481C60.4356 125 60 125.428 60 126.041Z" fill="#ECF0F1"/>
<path d="M80.1562 29.0534C78.3091 29.0534 76.875 27.5562 76.875 25.7087V15.8984C76.875 14.0515 78.3091 12.5537 80.1562 12.5537C82.0028 12.5537 83.4375 14.0515 83.4375 15.8984V25.7087C83.4375 27.5562 82.0028 29.0534 80.1562 29.0534Z" fill="#F4C342"/>
<path d="M80.1562 29.0534C78.3091 29.0534 76.875 27.5562 76.875 25.7087V15.8984C76.875 14.0515 78.3091 12.5537 80.1562 12.5537C82.0028 12.5537 83.4375 14.0515 83.4375 15.8984V25.7087C83.4375 27.5562 82.0028 29.0534 80.1562 29.0534Z" fill="#F4C342"/>
<path d="M132.396 71.875H122.585C120.739 71.875 119.241 70.4406 119.241 68.5938C119.241 66.7462 120.739 65.3125 122.585 65.3125H132.396C134.243 65.3125 135.74 66.7462 135.74 68.5938C135.74 70.4406 134.243 71.875 132.396 71.875Z" fill="#F89B36"/>
<path d="M132.396 71.875H122.585C120.739 71.875 119.241 70.4406 119.241 68.5938C119.241 66.7462 120.739 65.3125 122.585 65.3125H132.396C134.243 65.3125 135.74 66.7462 135.74 68.5938C135.74 70.4406 134.243 71.875 132.396 71.875Z" fill="#F89B36"/>
<path d="M37.4141 71.875H27.6038C25.7572 71.875 24.2594 70.4406 24.2594 68.5938C24.2594 66.7462 25.7572 65.3125 27.6038 65.3125H37.4141C39.261 65.3125 40.7591 66.7462 40.7591 68.5938C40.7591 70.4406 39.261 71.875 37.4141 71.875Z" fill="#F4C342"/>
<path d="M49.8875 41.5266C49.031 41.5266 48.1753 41.2001 47.5225 40.547L40.5853 33.6104C39.2791 32.3041 39.2791 30.1863 40.5853 28.8801C41.8916 27.5738 44.0094 27.5738 45.315 28.8801L52.2522 35.8173C53.5582 37.1229 53.5582 39.2407 52.2522 40.547C51.5991 41.2001 50.7432 41.5266 49.8875 41.5266Z" fill="#F4C342"/>
<path d="M110.112 41.5264C109.257 41.5264 108.401 41.2005 107.748 40.5473C106.441 39.2411 106.441 37.1239 107.748 35.8177L114.684 28.8798C115.99 27.5742 118.108 27.5736 119.414 28.8798C120.72 30.1861 120.72 32.3039 119.414 33.6102L112.477 40.5473C111.825 41.2005 110.968 41.5264 110.112 41.5264Z" fill="#F89B36"/>
<path d="M110.112 41.5264C109.257 41.5264 108.401 41.2005 107.748 40.5473C106.441 39.2411 106.441 37.1239 107.748 35.8177L114.684 28.8798C115.99 27.5742 118.108 27.5736 119.414 28.8798C120.72 30.1861 120.72 32.3039 119.414 33.6102L112.477 40.5473C111.825 41.2005 110.968 41.5264 110.112 41.5264Z" fill="#F89B36"/>
<defs>
<radialGradient id="paint0_radial" cx="0" cy="0" r="1" gradientUnits="userSpaceOnUse" gradientTransform="translate(80 80) scale(80)">
<stop offset="0.0051" stop-color="#33495F"/>
<stop offset="1" stop-color="#2B3E51"/>
</radialGradient>
</defs>
</svg>
