<svg width="80" height="80" viewBox="0 0 80 80" fill="none" xmlns="http://www.w3.org/2000/svg">
<g clip-path="url(#clip0)">
<path d="M24.7965 51.7869L35.9729 40.6105L39.2931 43.9307L28.1167 55.1071L24.7965 51.7869Z" fill="#A7D2D7"/>
<path d="M42.8586 33.7297L65.9806 10.6077L69.3009 13.928L46.1789 37.05L42.8586 33.7297Z" fill="#A7D2D7"/>
<path d="M44.5185 35.3894L67.6405 12.2674L69.3007 13.9276L46.1787 37.0496L44.5185 35.3894Z" fill="#7BA0B0"/>
<path d="M26.4562 53.4463L37.6326 42.2699L39.2928 43.9301L28.1164 55.1065L26.4562 53.4463Z" fill="#7BA0B0"/>
<path d="M71.2943 76.4287L62.8391 67.9737L70.3884 60.4243L78.8435 68.8794C81.0845 63.6445 80.0689 57.3458 75.7953 53.0722C72.525 49.8019 68.4992 48.8683 64.5991 49.7706C63.2967 50.0719 60.3659 51.2286 59.4206 50.2832L29.5393 20.4016C28.6092 19.4716 29.7631 16.5687 30.0393 15.2829C30.863 11.447 29.907 7.50463 26.6936 4.29145C22.4201 0.017867 16.1214 -0.997775 10.8864 1.24312L19.3415 9.69825L11.7923 17.2475L3.33699 8.7925C1.09594 14.0274 2.11158 20.326 6.38533 24.5998C9.65564 27.8701 13.6814 28.8037 17.5813 27.9014C18.8838 27.6 20.2491 28.0088 21.1945 28.9541L51.076 58.8356C52.006 59.7656 52.4175 61.1031 52.1414 62.3889C51.3177 66.2248 52.2737 70.1672 55.487 73.3803C59.7606 77.6539 66.0592 78.6697 71.2943 76.4287Z" fill="#E4EBEF"/>
<path d="M2.60532 77.3082C-1.04727 73.6556 -0.830771 67.6701 3.07635 64.291L23.6199 47.4739L32.4397 56.2936L15.6224 76.8373C12.2433 80.7443 6.25791 80.961 2.60532 77.3082Z" fill="#FF9468"/>
<path d="M2.60516 77.3081L2.60532 77.3083C6.25791 80.9608 12.2434 80.7443 15.6225 76.8372L32.4397 56.2936L28.0296 51.8835L2.60516 77.3081Z" fill="#FF5B5B"/>
<path d="M72.2871 0.959961L78.7784 7.45127L70.8106 15.4191L64.3193 8.92778L72.2871 0.959961Z" fill="#C7E2E5"/>
<path d="M12.5734 70.6599L4.48804 78.7468C3.81491 78.3648 3.18092 77.8843 2.60485 77.3082C2.02877 76.7321 1.54976 76.0981 1.16623 75.4265L9.25317 67.3396C10.1705 66.4223 11.6577 66.4223 12.5734 67.3396C13.4908 68.2569 13.4908 69.7441 12.5734 70.6599Z" fill="#FF5B5B"/>
<path d="M27.5357 62.2849L24.2718 66.272L13.6426 55.6428L17.6297 52.3789L27.5357 62.2849Z" fill="#FF5B5B"/>
<path d="M66.5 64.3128L15.6526 13.3871L19.3413 9.69836L10.8862 1.24323C16.1213 -0.99782 22.4199 0.0178231 26.6935 4.29141C29.9067 7.50474 30.8628 11.4471 30.0391 15.283C29.763 16.5688 30.1745 17.9063 31.1045 18.8363L60.986 48.7178C61.9313 49.6631 63.2965 50.0719 64.5991 49.7705C68.499 48.8682 72.5248 49.8018 75.7953 53.0722C80.0689 57.3459 81.0847 63.6445 78.8435 68.8794L70.3883 60.4243L66.5 64.3128Z" fill="#C7E2E5"/>
<path d="M67.643 12.2688L75.6108 4.30098L78.7767 7.46684L70.8088 15.4347L67.643 12.2688Z" fill="#A7D2D7"/>
<path d="M2.60485 77.3084C3.18092 77.8845 3.81492 78.3651 4.48805 78.747L12.5734 70.6601C13.4908 69.7443 13.4908 68.2572 12.5734 67.3398L2.60485 77.3084Z" fill="#FF193D"/>
<path d="M18.9564 60.9568L24.2718 66.2722L27.5357 62.2851L22.5819 57.3313L18.9564 60.9568Z" fill="#FF193D"/>
</g>
<defs>
<clipPath id="clip0">
<rect width="80" height="80" fill="white"/>
</clipPath>
</defs>
</svg>
