<svg width="20" height="20" viewBox="0 0 20 20" fill="none" xmlns="http://www.w3.org/2000/svg">
<g clip-path="url(#clip0)">
<path d="M4.83719 18.5728C6.38245 19.5027 8.14926 19.9928 9.9646 19.9928C15.4655 19.9928 20 15.504 20 9.99634C20 4.49509 15.472 0 9.9646 0C4.47403 0 0.00717164 4.48441 0.00717164 9.99634C0.00717164 11.8359 0.497437 13.6162 1.42715 15.1627L0 20L4.83719 18.5728ZM1.17874 9.99634C1.17874 5.13031 5.12009 1.17142 9.9646 1.17142C14.8521 1.17142 18.8286 5.13031 18.8286 9.99634C18.8286 14.8625 14.8521 18.8213 9.9646 18.8213C8.28278 18.8213 6.64841 18.3449 5.23865 17.4434L5.01343 17.2995L1.73264 18.2675L2.7005 14.9866L2.55661 14.7615C1.65512 13.3514 1.17874 11.7038 1.17874 9.99634V9.99634Z" fill="white"/>
<path d="M4.86834 8.15435C5.06182 9.17043 5.63616 11.1248 7.30837 12.797C8.98058 14.4692 10.9349 15.0437 11.9512 15.2372C13.1148 15.4587 14.8224 15.4921 15.6569 14.6576L16.1222 14.1924C16.357 13.9576 16.4864 13.6452 16.4864 13.313C16.4864 12.9809 16.357 12.6687 16.1222 12.4338L14.2617 10.5733C14.0267 10.3383 13.7145 10.2091 13.3823 10.2091C13.0501 10.2091 12.7379 10.3383 12.5029 10.5733L12.0378 11.0384C11.7537 11.3225 11.2174 11.3238 10.9311 11.0419L9.07534 9.10833C9.07259 9.10543 9.06985 9.10253 9.06695 9.09978C8.78237 8.81521 8.78237 8.3521 9.06695 8.06753L9.53204 7.60244C10.0182 7.11629 10.0182 6.3297 9.53204 5.84371L7.67153 3.98321C7.18676 3.49844 6.39788 3.49844 5.91296 3.98321L5.44787 4.44845V4.4483C4.78182 5.11449 4.55981 6.53448 4.86834 8.15435V8.15435ZM6.27627 5.27685C6.76455 4.79971 6.73846 4.79055 6.79232 4.79055C6.81078 4.79055 6.82925 4.79757 6.84329 4.81161C8.80374 6.78259 8.725 6.66677 8.725 6.72323C8.725 6.74291 8.71783 6.76015 8.70394 6.77419L8.2387 7.23928C7.49789 7.98009 7.49499 9.17928 8.23397 9.92345L10.0908 11.8583C10.0937 11.861 10.0965 11.8639 10.0994 11.8668C10.84 12.6075 12.1231 12.6099 12.8662 11.8668L13.3313 11.4017C13.3594 11.3736 13.4052 11.3736 13.4333 11.4017C15.3937 13.3726 15.315 13.2567 15.315 13.3132C15.315 13.333 15.3078 13.3501 15.2939 13.3642L14.8287 13.8292C14.5099 14.148 13.4946 14.3387 12.1703 14.0865C11.2865 13.9181 9.58712 13.4191 8.13677 11.9687C6.68643 10.5184 6.18746 8.81902 6.01916 7.93523C5.76678 6.61092 5.95751 5.59545 6.27627 5.27685V5.27685Z" fill="white"/>
</g>
<defs>
<clipPath id="clip0">
<rect width="20" height="20" fill="white"/>
</clipPath>
</defs>
</svg>
