<svg width="1600" height="1476" viewBox="0 0 1600 1476" fill="none" xmlns="http://www.w3.org/2000/svg">
<path d="M0 52C0 52 81 -65 275.5 52C374.688 111.666 616 179.467 1029 94.9835C1442 10.5004 1600 52 1600 52V802H0V52Z" fill="#1F1F1F" fill-opacity="0.1"/>
<path d="M0 122.111C0 122.111 116.5 52.111 275.5 122.111C434.5 192.111 815.5 266.079 1029 165.095C1242.5 64.111 1600 122.111 1600 122.111V872.111H0V122.111Z" fill="#1F1F1F"/>
<path d="M0 83.1118C0 83.1118 343.5 -32 515 83.1118C686.5 198.224 815.5 227.079 1029 126.095C1130.57 78.0515 1256.74 21.9393 1369.5 22.5C1493.75 23.1179 1600 83.1118 1600 83.1118V833.112H0V83.1118Z" fill="#1F1F1F" fill-opacity="0.2"/>
<path d="M1600 1423.11C1600 1423.11 1519 1540.11 1324.5 1423.11C1225.31 1363.44 984 1295.64 571 1380.13C158 1464.61 0 1423.11 0 1423.11V673.111H1600V1423.11Z" fill="#1F1F1F" fill-opacity="0.1"/>
<path d="M1600 1392C1600 1392 1322 1524.61 1150.5 1409.5C979 1294.39 776 1261.52 562.5 1362.5C460.926 1410.54 343.257 1453.17 230.5 1452.61C106.252 1451.99 0 1392 0 1392V641.999H1600V1392Z" fill="#1F1F1F" fill-opacity="0.2"/>
<path d="M0.5 1391.71V642.499H1599.5V1391.68C1599.37 1391.74 1599.2 1391.82 1598.99 1391.92C1598.46 1392.17 1597.67 1392.53 1596.63 1393.01C1594.55 1393.95 1591.49 1395.31 1587.52 1397.01C1579.59 1400.41 1568.07 1405.14 1553.71 1410.45C1524.98 1421.08 1484.9 1434.05 1439.46 1443.43C1348.56 1462.18 1236.36 1466.53 1150.78 1409.08C979.149 1293.89 775.963 1260.98 562.286 1362.05C460.731 1410.08 343.145 1452.67 230.502 1452.11C168.454 1451.8 110.887 1436.67 68.8254 1421.6C47.7963 1414.07 30.6473 1406.56 18.7571 1400.93C12.8121 1398.12 8.18213 1395.77 5.03943 1394.13C3.46802 1393.32 2.26855 1392.67 1.4624 1392.23C1.05933 1392.01 0.754639 1391.85 0.551025 1391.73L0.5 1391.71Z" stroke="#D33131" stroke-opacity="0.2"/>
<path d="M1600 1353C1600 1353 1483.5 1423 1324.5 1353C1165.5 1283 784.5 1209.03 571 1310.02C357.5 1411 0 1353 0 1353V603H1600V1353Z" fill="#1F1F1F"/>
</svg>
